<svg width="554" height="475" viewBox="0 0 554 475" fill="none" xmlns="http://www.w3.org/2000/svg">
<circle cx="5.70988" cy="5.70988" r="5.70988" fill="#303030"/>
<circle cx="5.70988" cy="63.57" r="5.70988" fill="#303030"/>
<circle cx="5.70988" cy="121.43" r="5.70988" fill="#303030"/>
<circle cx="5.70988" cy="179.29" r="5.70988" fill="#303030"/>
<circle cx="73.4672" cy="5.70988" r="5.70988" fill="#303030"/>
<circle cx="73.4672" cy="63.57" r="5.70988" fill="#303030"/>
<circle cx="73.4672" cy="121.43" r="5.70988" fill="#303030"/>
<circle cx="73.4672" cy="179.29" r="5.70988" fill="#303030"/>
<circle cx="141.224" cy="5.70988" r="5.70988" fill="#303030"/>
<circle cx="141.224" cy="63.57" r="5.70988" fill="#303030"/>
<circle cx="141.224" cy="121.43" r="5.70988" fill="#303030"/>
<circle cx="141.224" cy="179.29" r="5.70988" fill="#303030"/>
<circle cx="208.981" cy="5.70988" r="5.70988" fill="#303030"/>
<circle cx="208.981" cy="63.57" r="5.70988" fill="#303030"/>
<circle cx="208.981" cy="121.43" r="5.70988" fill="#303030"/>
<circle cx="208.981" cy="179.29" r="5.70988" fill="#303030"/>
<circle cx="276.739" cy="5.70988" r="5.70988" fill="#303030"/>
<circle cx="276.739" cy="63.57" r="5.70988" fill="#303030"/>
<circle cx="276.739" cy="121.43" r="5.70988" fill="#303030"/>
<circle cx="276.739" cy="179.29" r="5.70988" fill="#303030"/>
<circle cx="344.496" cy="5.70988" r="5.70988" fill="#303030"/>
<circle cx="344.496" cy="63.57" r="5.70988" fill="#303030"/>
<circle cx="344.496" cy="121.43" r="5.70988" fill="#303030"/>
<circle cx="344.496" cy="179.29" r="5.70988" fill="#303030"/>
<circle cx="412.253" cy="5.70988" r="5.70988" fill="#303030"/>
<circle cx="412.253" cy="63.57" r="5.70988" fill="#303030"/>
<circle cx="412.253" cy="121.43" r="5.70988" fill="#303030"/>
<circle cx="412.253" cy="179.29" r="5.70988" fill="#303030"/>
<circle cx="480.01" cy="5.70988" r="5.70988" fill="#303030"/>
<circle cx="480.01" cy="63.57" r="5.70988" fill="#303030"/>
<circle cx="480.01" cy="121.43" r="5.70988" fill="#303030"/>
<circle cx="480.01" cy="179.29" r="5.70988" fill="#303030"/>
<circle cx="547.768" cy="5.70988" r="5.70988" fill="#303030"/>
<circle cx="547.768" cy="63.57" r="5.70988" fill="#303030"/>
<circle cx="547.768" cy="121.43" r="5.70988" fill="#303030"/>
<circle cx="547.768" cy="179.29" r="5.70988" fill="#303030"/>
<circle cx="5.70988" cy="237.57" r="5.70988" fill="#303030"/>
<circle cx="5.70988" cy="295.43" r="5.70988" fill="#303030"/>
<circle cx="5.70988" cy="353.29" r="5.70988" fill="#303030"/>
<circle cx="73.4672" cy="237.57" r="5.70988" fill="#303030"/>
<circle cx="73.4672" cy="295.43" r="5.70988" fill="#303030"/>
<circle cx="73.4672" cy="353.29" r="5.70988" fill="#303030"/>
<circle cx="141.224" cy="237.57" r="5.70988" fill="#303030"/>
<circle cx="141.224" cy="295.43" r="5.70988" fill="#303030"/>
<circle cx="141.224" cy="353.29" r="5.70988" fill="#303030"/>
<circle cx="208.981" cy="237.57" r="5.70988" fill="#303030"/>
<circle cx="208.981" cy="295.43" r="5.70988" fill="#FF0040"/>
<circle cx="208.981" cy="353.29" r="5.70988" fill="#303030"/>
<circle cx="276.739" cy="237.57" r="5.70988" fill="#303030"/>
<circle cx="276.739" cy="295.43" r="5.70988" fill="#303030"/>
<circle cx="276.739" cy="353.29" r="5.70988" fill="#303030"/>
<circle cx="344.496" cy="237.57" r="5.70988" fill="#303030"/>
<circle cx="344.496" cy="295.43" r="5.70988" fill="#303030"/>
<circle cx="344.496" cy="353.29" r="5.70988" fill="#303030"/>
<circle cx="412.253" cy="237.57" r="5.70988" fill="#303030"/>
<circle cx="412.253" cy="295.43" r="5.70988" fill="#303030"/>
<circle cx="412.253" cy="353.29" r="5.70988" fill="#303030"/>
<circle cx="480.01" cy="237.57" r="5.70988" fill="#303030"/>
<circle cx="480.01" cy="295.43" r="5.70988" fill="#303030"/>
<circle cx="480.01" cy="353.29" r="5.70988" fill="#303030"/>
<circle cx="547.768" cy="237.57" r="5.70988" fill="#303030"/>
<circle cx="547.768" cy="295.43" r="5.70988" fill="#303030"/>
<circle cx="547.768" cy="353.29" r="5.70988" fill="#303030"/>
<circle cx="5.70988" cy="353.57" r="5.70988" fill="#303030"/>
<circle cx="5.70988" cy="411.43" r="5.70988" fill="#303030"/>
<circle cx="5.70988" cy="469.29" r="5.70988" fill="#303030"/>
<circle cx="73.4672" cy="353.57" r="5.70988" fill="#303030"/>
<circle cx="73.4672" cy="411.43" r="5.70988" fill="#303030"/>
<circle cx="73.4672" cy="469.29" r="5.70988" fill="#303030"/>
<circle cx="141.224" cy="353.57" r="5.70988" fill="#303030"/>
<circle cx="141.224" cy="411.43" r="5.70988" fill="#303030"/>
<circle cx="141.224" cy="469.29" r="5.70988" fill="#303030"/>
<circle cx="208.981" cy="353.57" r="5.70988" fill="#303030"/>
<circle cx="208.981" cy="411.43" r="5.70988" fill="#303030"/>
<circle cx="208.981" cy="469.29" r="5.70988" fill="#303030"/>
<circle cx="276.739" cy="353.57" r="5.70988" fill="#303030"/>
<circle cx="276.739" cy="411.43" r="5.70988" fill="#303030"/>
<circle cx="276.739" cy="469.29" r="5.70988" fill="#303030"/>
<circle cx="344.496" cy="353.57" r="5.70988" fill="#303030"/>
<circle cx="344.496" cy="411.43" r="5.70988" fill="#303030"/>
<circle cx="344.496" cy="469.29" r="5.70988" fill="#303030"/>
<circle cx="412.253" cy="353.57" r="5.70988" fill="#303030"/>
<circle cx="412.253" cy="411.43" r="5.70988" fill="#303030"/>
<circle cx="412.253" cy="469.29" r="5.70988" fill="#303030"/>
<circle cx="480.01" cy="353.57" r="5.70988" fill="#303030"/>
<circle cx="480.01" cy="411.43" r="5.70988" fill="#303030"/>
<circle cx="480.01" cy="469.29" r="5.70988" fill="#303030"/>
<circle cx="547.768" cy="353.57" r="5.70988" fill="#303030"/>
<circle cx="547.768" cy="411.43" r="5.70988" fill="#303030"/>
<circle cx="547.768" cy="469.29" r="5.70988" fill="#303030"/>
</svg>
